OFF
18 28 0
-1.000000 -1.000000 0.000000
1.000000 -1.000000 0.000000
0.000000 1.000000 0.000000
6.386501 -7.527092 0.000000
2.496584 -6.428342 0.000000
-1.967302 0.628021 0.000000
-5.934338 6.545675 0.000000
-0.738239 -2.412699 0.000000
-3.333572 -1.841918 0.000000
-4.222473 -5.046558 0.000000
7.819338 5.201818 0.000000
-4.439983 -0.169440 0.000000
-9.957285 9.245249 0.000000
-0.723399 4.837328 0.000000
-9.440041 4.225974 0.000000
-6.429551 -9.819168 0.000000
6.676834 -9.706887 0.000000
7.390381 -9.547913 0.000000
3 0 1 2
3 3 2 1
3 0 3 1
3 4 3 0
3 4 0 6
3 3 4 9
3 5 0 2
3 0 5 6
3 6 5 2
3 7 4 6
3 8 4 7
3 6 8 7
3 4 8 9
3 9 6 12
3 3 9 15
3 3 10 2
3 11 6 9
3 11 9 8
3 11 8 6
3 12 6 10
3 13 2 10
3 13 10 6
3 13 6 2
3 14 9 12
3 15 9 14
3 16 10 3
3 15 16 3
3 17 10 16
